<svg width="100%" height="62mm" viewBox="-90 -50 20 250" xmlns="http://www.w3.org/2000/svg" xmlns:xlink="http://www.w3.org/1999/xlink">
<g><path d="M-96 59 L-93 55.5 L-91.5 54 L-88.5 53 L-82 49.875 L-71 49.75 L-67 50.625 L-62.5 52 L-60.5 54 L-54 59.5 L-50 69.5 L-49.625 72 L-49.5 77 L-51.5 86 L-52.625 89 L-53 90.5 L-54 91.5 L-53.5 92 L-51.5 92 L-43.5 86 L-39.25 79.75 L-32.625 67 L-29.5 59 L-28.625 55 L-29.625 43 L-31.5 39 L-34.25 34.25 L-39.5 29 L-44.5 26 L-46.5 24 L-49 23.5 L-55 21.625 L-61 20.5 L-69.5 20 L-79 21.5 L-87 23.625 L-94 26.5 L-101 30.5 L-105.5 34 L-112.75 39.25 L-117.5 44 L-126 52.5 L-127.75 54.25 L-135 64.5 L-136 66.5 L-138 68.5 L-142.375 81 L-143.25 103 L-142.375 106 L-138.5 114 L-129.5 124 L-119 129.375 L-111 132.625 L-109.5 133 L-106.5 134 L-96 136.75 L-94.5 137 L-92.5 137 L-82.5 137 L-80.5 137 L-65 136.25 L-60 135.5 L-53 133.5 L-46.25 130.75 L-45.75 121.25 L-44 120.625 L-40 120.625 L-38.5 121 L-37 122.5 L-36 134.5 L-40.5 139 L-42 139.5 L-51 143.5 L-57 145.375 L-63 146.5 L-71.5 147 L-76.5 148 L-101 145.375 L-116 141.625 L-120 140.5 L-130 136.375 L-132.5 135 L-143.75 126.75 L-149 119.5 L-153.375 111 L-155.25 103 L-155.25 88 L-151.375 71 L-147.5 63 L-143 55.5 L-140 51.5 L-121.75 31.25 L-115 26.5 L-108.5 22 L-105.5 19 L-101.5 17 L-98.75 15.25 L-96.5 15 L-93.5 14 L-92 13.625 L-89 12.5 L-85 11.5 L-80.25 10.875 L-71.5 10 L-60.5 10 L-55.5 10 L-44.5 13 L-42.5 15 L-39.5 16 L-35.5 18 L-23 30.5 L-22.5 32 L-18.625 40 L-17.75 43 L-17.75 58 L-19.625 65 L-23.625 75 L-29 84.5 L-37 94.5 L-38.5 96 L-44.5 100 L-46.5 102 L-53 103.625 L-58 102.375 L-60.5 101 L-63 100.5 L-68 103.375 L-73 105.375 L-75.5 106 L-78.25 106.75 L-88.5 109 L-90.5 109 L-96 107.375 L-98 106.5 L-99.5 106 L-105 100.5 L-106.25 95 L-106.5 86 L-105.25 78 L-102.375 70 L-101.5 68 L-96 59 M-82 96.25 L-78 95.5 L-69 91.5 L-67.5 91 L-65 88.5 L-63.5 74 L-63.75 69 L-65 65.5 L-67.5 63 L-77.5 61 L-80.5 62 L-85 65.5 L-86.5 68 L-89 71.5 L-90.5 74 L-92.5 79 L-93.375 82 L-94 86.5 L-95 92.5 L-95 94.5 L-92.5 97 Z"/></g>
</svg>
