<svg width="100%" height="62mm" viewBox="-165 215 200 380" xmlns="http://www.w3.org/2000/svg" xmlns:xlink="http://www.w3.org/1999/xlink">
<g><path d="M-26 418.5 L-50.5 421 L-52 420.5 L-54.5 419 L-57 416.5 L-56 409.5 L-53.5 407 L-50.5 406 L-43 405.375 L-41.5 405 L-36.5 404 L-11.5 401 L-4.5 399 L1 398.375 L11.5 397 L27.5 395 L43 395 L46.5 397 L49 399.5 L49.5 404 L48.5 406 L47.75 407.75 L30.5 410 L19.5 411 L18 411.375 L12.5 412 L6.5 413 L3.5 414 L-26 418.5"/></g><g><path d="M-70 352 L-68 455.5 L-69 458.5 L-70 463.5 L-72.5 466 L-79.5 467 L-83 463.5 L-84 457.5 L-85 444.5 L-86 429.5 L-87 424.5 L-88 409.5 L-89 391.5 L-90 388.5 L-90 360.5 L-89 357.5 L-88.375 351 L-86 338.5 L-84 336.5 L-83 332.5 L-82.5 332 L-81.5 333 L-79.5 333 L-76.5 330 L-71.5 330 L-69 332.5 L-69 340.5 L-70 348 L-70 350 L-70 352"/></g><g><path d="M-171 337 L-166.5 333 L-164 331.5 L-160.5 329 L-153.5 325 L-147.5 321 L-146 320.625 L-130 315.5 L-103 311.375 L-60.5 314 L-48.5 315 L-6.5 320 L1.5 320 L18.5 322 L30 322.5 L31 322.5 L39.5 323 L50 323.5 L52 323.625 L63.5 325 L75.5 329 L78 333.5 L75.5 336 L73.5 337 L70.5 338 L21.5 335 L9.5 335 L7 334.5 L5 334.625 L-3.5 334 L-16.5 333 L-48.5 330 L-61.5 328 L-79.5 327 L-94.5 327 L-107.5 328 L-120 327.625 L-125 328.5 L-137 331.625 L-147.5 336 L-158.5 343 L-163 347.5 L-166 351.5 L-171 362.5 L-177.5 374 L-180.5 381 L-182 400 L-183 429 L-183 434.5 L-181 447.5 L-179.375 453 L-178 457.5 L-174 465.5 L-167.75 475 L-163.5 478 L-158.5 481 L-151 483.375 L-127 490.5 L-92.5 495 L-25.5 494 L13.5 493 L28.5 492 L44 489.5 L50 488.25 L55 486.375 L56.5 486 L58 484.5 L58.375 483 L59.5 480 L60.125 477 L58 404.5 L58 402.5 L58 396.5 L56 384.5 L53.625 366 L54 345.5 L57.5 342 L61.5 342 L64.75 343.25 L66.25 347 L67.75 354 L67.75 356 L68 363.5 L69.375 374 L69.25 385.75 L70 403.5 L71 436.5 L72 477.5 L71 482.5 L70.625 484 L68 490.5 L63.5 495 L59.5 497 L57 497.625 L52 499.375 L24 503.375 L7.5 504 L-48.5 505 L-92.5 506 L-118 504.5 L-135 501.375 L-151 496.5 L-159.5 494 L-166 490.5 L-176.75 483.75 L-180.75 478.75 L-182 476.5 L-186.375 470 L-190 462.5 L-190.5 461 L-193.5 453 L-195.5 444 L-196 439.5 L-197.25 428 L-197 396.5 L-196 386.5 L-195 383.5 L-193.5 377 L-192.25 372 L-188.625 365 L-186 360.5 L-181.5 353 L-179.5 350 L-174 340.5 L-172 338 L-171 337"/></g>
</svg>
