<svg width="100%" height="62mm" version="1.1" viewBox="3 5 20 20" xmlns="http://www.w3.org/2000/svg">
<g stroke-width=".26458">
<g transform="translate(1235.3 -50.718)">
<path d="m-1222 72.394c0.1016 0.2032 0.254 0.3048 0.4318 0.3302s0.3048-0.0762 0.381-0.2794c0.051-0.2032 0.127-1.2446 0.2032-3.1496 0.076-1.8796 0.2032-3.683 0.381-5.4102 0.1778-1.7018 0.2794-2.8448 0.2794-3.429 0-0.381-0.051-0.6096-0.1016-0.7366-0.051-0.1016-0.2032-0.1778-0.4064-0.2286-0.3302-0.0762-0.5588-0.0254-0.7112 0.1778-0.127 0.1524-0.2794 1.0922-0.4826 2.794s-0.381 3.4544-0.4826 5.207c-0.051 0.889-0.025 1.8288 0.076 2.7686 0.1016 0.9398 0.2286 1.6002 0.4318 1.9558zm5.4356 0.0762c0.1524 0.3048 0.3302 0.4318 0.5334 0.4064 0.1778-0.0508 0.3048-0.254 0.4064-0.6096 0.1524-0.635 0.381-3.7592 0.7366-9.3726 0.1016-1.7272 0.1016-2.7178 0-2.9972-0.127-0.3302-0.3048-0.5588-0.508-0.6858-0.2032-0.1524-0.4064-0.1778-0.5842-0.0508 0 0.0254-0.025 0.0254-0.025 0.0254-0.1524 0.0762-0.2794 0.4826-0.3302 1.2192-0.051 0.7366-0.1778 3.2004-0.3302 7.4422-0.025 0.2794-0.025 0.508-0.025 0.635-0.051 1.397-0.076 2.3622-0.051 2.8956 0 0.5334 0.076 0.9144 0.1778 1.0922zm-10.795 0.5334c0.3048 0.4572 0.5334 0.5842 0.7366 0.4064 0.2286-0.2286 0.254-0.762 0.1016-1.6002-0.1524-0.635-0.2032-1.5748-0.1778-2.7686 0.025-1.1938 0.127-2.413 0.2794-3.6068 0.2032-1.4224 0.3302-2.7178 0.4064-3.8608 0.051-0.7366 0.051-1.2192 0.025-1.4478-0.025-0.2286-0.1016-0.4064-0.2286-0.508-0.3048-0.2286-0.5842-0.254-0.8382-0.0508-0.2794 0.2032-0.4318 0.5334-0.4826 1.016-0.4826 4.0132-0.7112 6.8834-0.6858 8.5852 0.025 1.7272 0.3048 2.9972 0.8636 3.8354z"/>
<path d="m-1211.9 68.863c0.1524 0.1778 0.2794 0.2794 0.3302 0.3048 0.076 0.0254 0.2286-0.0254 0.4572-0.1524 0.3556-0.2032 0.4318-0.635 0.254-1.3208-0.2032-0.6604-0.635-1.4478-1.3462-2.3368-0.508-0.6858-1.016-1.1176-1.4732-1.3462s-1.1176-0.3302-2.032-0.3302-1.8034 0.1778-2.667 0.508c-0.8382 0.3302-1.9304 0.9398-3.2512 1.8034-1.143 0.7366-2.159 1.2192-2.9972 1.397-0.8636 0.2032-1.7018 0.1524-2.54-0.1524-0.8128-0.3302-1.778-0.9398-2.8702-1.8796-0.4064-0.3556-0.7112-0.5842-0.9144-0.6858-0.2286-0.1016-0.4318-0.1524-0.6858-0.127-0.2286 0.0254-0.381 0.0508-0.4572 0.127-0.051 0.0762-0.076 0.1778-0.076 0.3048 0.051 0.3048 0.3556 0.7366 0.889 1.2954 0.5334 0.5334 1.143 1.0414 1.8034 1.524 0.6858 0.4826 1.2192 0.762 1.6256 0.8636 1.1176 0.254 2.2352 0.254 3.3782 0 1.1684-0.2286 2.2606-0.7112 3.302-1.4224 2.5654-1.7018 4.5212-2.4638 5.842-2.2606 0.3302 0.0508 0.5842 0.127 0.7874 0.254s0.4572 0.3556 0.762 0.6858c0.4826 0.5588 0.8636 1.143 1.1684 1.7272s0.5588 0.9906 0.7112 1.2192z"/>
</g>
</g>
</svg>
